<svg width="29" height="32" viewBox="0 0 29 32" fill="none" xmlns="http://www.w3.org/2000/svg">
<g clip-path="url(#clip0_148_4)">
<path fill-rule="evenodd" clip-rule="evenodd" d="M20.9159 11.5119C23.0469 13.0357 25.6021 13.8531 28.2219 13.8489V8.60889C27.7063 8.60899 27.1922 8.55504 26.6879 8.44789V12.5729C24.0678 12.577 21.5123 11.7597 19.3809 10.2359V20.9289C19.3809 22.6848 18.9039 24.4078 18.0007 25.9137C17.0976 27.4197 15.8023 28.6519 14.2532 29.4789C12.7042 30.3058 10.9595 30.6964 9.20576 30.6089C7.45197 30.5213 5.75491 29.959 4.2959 28.9819C5.6424 30.3582 7.36833 31.3023 9.25358 31.6938C11.1388 32.0852 13.098 31.9062 14.8811 31.1797C16.6642 30.4531 18.1905 29.2119 19.2653 27.6144C20.3401 26.0168 20.9148 24.1353 20.9159 22.2099V11.5119ZM22.8089 6.22589C21.7259 5.04643 21.0607 3.54358 20.9159 1.94888V1.27588H19.4579C19.6375 2.28964 20.0285 3.25428 20.6053 4.10709C21.1821 4.95989 21.9319 5.6818 22.8059 6.22589M7.6809 24.8729C7.11224 24.1227 6.7971 23.2109 6.78112 22.2697C6.76514 21.3284 7.04915 20.4065 7.59202 19.6375C8.13489 18.8684 8.90845 18.292 9.80069 17.9919C10.6929 17.6917 11.6576 17.6833 12.5549 17.9679V12.6109C12.0467 12.541 11.5338 12.5116 11.0209 12.5229V16.6919C9.95858 16.3529 8.80752 16.4268 7.79729 16.8989C6.78706 17.371 5.99192 18.2066 5.57044 19.239C5.14896 20.2713 5.13213 21.4246 5.5233 22.4689C5.91446 23.5131 6.68488 24.3715 7.6809 24.8729" fill="#EE1D52"/>
<path fill-rule="evenodd" clip-rule="evenodd" d="M19.382 10.2359C21.513 11.7596 24.0682 12.5769 26.688 12.5729V8.44789C25.195 8.12904 23.8388 7.35185 22.809 6.22488C21.935 5.68099 21.1854 4.95925 20.6087 4.1066C20.0321 3.25394 19.6414 2.28946 19.462 1.27588H15.643V22.2059C15.639 23.1322 15.3451 24.034 14.8025 24.7847C14.2598 25.5354 13.4957 26.0973 12.6173 26.3915C11.739 26.6857 10.7906 26.6975 9.90521 26.4251C9.01986 26.1527 8.24204 25.6099 7.68096 24.8729C6.68494 24.3715 5.91452 23.5131 5.52335 22.4689C5.13219 21.4246 5.14902 20.2713 5.5705 19.239C5.99198 18.2066 6.78712 17.371 7.79735 16.8989C8.80757 16.4268 9.95863 16.3529 11.021 16.6919V12.5229C9.13055 12.5597 7.29227 13.1492 5.73292 14.2185C4.17357 15.2878 2.96136 16.7902 2.24584 18.5403C1.53031 20.2905 1.34278 22.2118 1.70638 24.0673C2.06998 25.9228 2.9688 27.6312 4.29196 28.9819C5.75071 29.9587 7.44735 30.5209 9.20072 30.6086C10.9541 30.6963 12.6984 30.3062 14.2473 29.4799C15.7963 28.6535 17.0917 27.422 17.9953 25.9169C18.899 24.4118 19.3768 22.6895 19.378 20.9339L19.382 10.2359Z" fill="black"/>
<path fill-rule="evenodd" clip-rule="evenodd" d="M26.689 8.44896V7.33296C25.3177 7.33562 23.9734 6.95196 22.81 6.22595C23.8397 7.35313 25.1959 8.13036 26.689 8.44896ZM19.462 1.27596C19.4273 1.07596 19.4007 0.875964 19.382 0.675964V0.00195312H14.108V20.932C14.1045 21.687 13.9083 22.4287 13.538 23.0867C13.1677 23.7447 12.6355 24.2973 11.9918 24.692C11.3482 25.0868 10.6144 25.3107 9.86003 25.3426C9.10564 25.3744 8.35561 25.2131 7.681 24.874C8.24208 25.611 9.0199 26.1538 9.90525 26.4262C10.7906 26.6986 11.739 26.6868 12.6174 26.3926C13.4957 26.0984 14.2598 25.5365 14.8025 24.7858C15.3452 24.0351 15.6391 23.1333 15.643 22.207V1.27696L19.462 1.27596ZM11.021 12.522V11.334C9.64929 11.1454 8.25312 11.2527 6.92632 11.6486C5.59953 12.0445 4.37288 12.7199 3.32882 13.6293C2.28477 14.5388 1.44751 15.6612 0.873333 16.9211C0.299159 18.1811 0.00137473 19.5494 4.35224e-07 20.934C-0.000476901 22.5256 0.391696 24.0928 1.14176 25.4967C1.89183 26.9005 2.97662 28.0976 4.3 28.982C2.97856 27.6313 2.08109 25.9236 1.71814 24.0692C1.35519 22.2148 1.54263 20.2948 2.25735 18.5456C2.97208 16.7964 4.18287 15.2945 5.74057 14.2249C7.29827 13.1553 9.13483 12.5647 11.024 12.526" fill="#69C9D0"/>
</g>
<defs>
<clipPath id="clip0_148_4">
<rect width="28.223" height="31.892" fill="white"/>
</clipPath>
</defs>
</svg>
