<svg xmlns="http://www.w3.org/2000/svg" width="30.581" height="30.581" viewBox="0 0 30.581 30.581">
  <path id="Path_1157" data-name="Path 1157" d="M98.487,15.364a15.291,15.291,0,1,0-17.68,15.1V19.784H76.924v-4.42h3.883V12c0-3.832,2.283-5.949,5.775-5.949a23.54,23.54,0,0,1,3.423.3v3.763H88.077A2.21,2.21,0,0,0,85.585,12.5v2.868h4.241l-.678,4.42H85.585V30.469a15.294,15.294,0,0,0,12.9-15.1" transform="translate(-67.905 -0.073)" fill="#337fff"/>
  <path id="Path_1158" data-name="Path 1158" d="M90.563,20.722l.678-4.42H87V13.434a2.21,2.21,0,0,1,2.492-2.388h1.928V7.282A23.556,23.556,0,0,0,88,6.984c-3.493,0-5.775,2.117-5.775,5.949V16.3H78.34v4.42h3.883V31.406a15.449,15.449,0,0,0,4.778,0V20.722Z" transform="translate(-69.321 -1.011)" fill="#fff"/>
</svg>
