<svg xmlns="http://www.w3.org/2000/svg" width="5.494" height="8.622" viewBox="0 0 5.494 8.622">
  <g id="Group_158" data-name="Group 158" transform="translate(1379.187 -1520.769) rotate(90)">
    <path id="Path_97" data-name="Path 97" d="M35.337,115.463l-1.521-1.354a1.131,1.131,0,0,0-1.5,1.69l3.484,3.1a1.131,1.131,0,0,0,1.6-.093l2.875-3.23a1.132,1.132,0,1,0-1.691-1.5l-.993,1.116-1.076,1.318Z" transform="translate(1488.837 1260)" fill="#0c5576"/>
    <path id="Path_98" data-name="Path 98" d="M35.337,115.463l-1.521-1.354a1.131,1.131,0,0,0-1.5,1.69l3.484,3.1a1.131,1.131,0,0,0,1.6-.093l2.875-3.23a1.132,1.132,0,1,0-1.691-1.5l-.993,1.116-1.076,1.318Z" transform="translate(1488.837 1260)" fill="#0c5576"/>
  </g>
</svg>
