<svg xmlns="http://www.w3.org/2000/svg" width="12.859" height="8.194" viewBox="0 0 12.859 8.194">
  <g id="Group_156" data-name="Group 156" transform="translate(-1520.769 -1373.692)">
    <path id="Path_97" data-name="Path 97" d="M37.01,116.333l-2.269-2.019a1.687,1.687,0,0,0-2.244,2.521l5.2,4.624a1.686,1.686,0,0,0,2.382-.139l4.287-4.818a1.688,1.688,0,1,0-2.521-2.244l-1.481,1.665-1.605,1.965Z" transform="translate(1488.837 1260)" fill="#fff"/>
    <path id="Path_98" data-name="Path 98" d="M37.01,116.333l-2.269-2.019a1.687,1.687,0,0,0-2.244,2.521l5.2,4.624a1.686,1.686,0,0,0,2.382-.139l4.287-4.818a1.688,1.688,0,1,0-2.521-2.244l-1.481,1.665-1.605,1.965Z" transform="translate(1488.837 1260)" fill="#fff"/>
  </g>
</svg>
