<svg xmlns="http://www.w3.org/2000/svg" width="16" height="21.792" viewBox="0 0 16 21.792">
  <path id="Path_1723" data-name="Path 1723" d="M964.188,40.456v2.255a.991.991,0,0,0,1.98,0V40.456a1.983,1.983,0,1,0-1.98,0Z" transform="translate(-957.094 -26.309)" fill="#0c5576"/>
  <g id="Path_1743" data-name="Path 1743" transform="translate(0 5.992)" fill="none">
    <path d="M8,0a7.95,7.95,0,0,1,8,7.9,7.95,7.95,0,0,1-8,7.9A7.95,7.95,0,0,1,0,7.9,7.95,7.95,0,0,1,8,0Z" stroke="none"/>
    <path d="M 8 2 C 4.691590309143066 2 2 4.646729469299316 2 7.899999618530273 C 2 11.15326976776123 4.691590309143066 13.79999923706055 8 13.79999923706055 C 11.30841064453125 13.79999923706055 14 11.15326976776123 14 7.899999618530273 C 14 4.646729469299316 11.30841064453125 2 8 2 M 8 0 C 12.41827964782715 0 16 3.536949157714844 16 7.899999618530273 C 16 12.2630500793457 12.41827964782715 15.79999923706055 8 15.79999923706055 C 3.581720352172852 15.79999923706055 0 12.2630500793457 0 7.899999618530273 C 0 3.536949157714844 3.581720352172852 0 8 0 Z" stroke="none" fill="#0c5576"/>
  </g>
  <g id="Rectangle_363" data-name="Rectangle 363" transform="matrix(1, 0.017, -0.017, 1, 3.153, 0)" fill="none" stroke="#0c5576" stroke-linecap="round" stroke-linejoin="round" stroke-width="2">
    <path d="M5,0H5a5,5,0,0,1,5,5V7.919a0,0,0,0,1,0,0H0a0,0,0,0,1,0,0V5A5,5,0,0,1,5,0Z" stroke="none"/>
    <path d="M5,1H5A4,4,0,0,1,9,5V6.919a0,0,0,0,1,0,0H1a0,0,0,0,1,0,0V5A4,4,0,0,1,5,1Z" fill="none"/>
  </g>
</svg>
